<svg class="svg-icon" style="width: 1em; height: 1em;vertical-align: middle;fill: currentColor;overflow: hidden;" viewBox="0 0 1024 1024" version="1.1" xmlns="http://www.w3.org/2000/svg"><path d="M327.696 320h352.896l-106.72 108.768 56.416 57.44 203.168-203.2L630.288 79.6l-56.432 54.896L680.8 240H327.68C125.76 240 6.992 475.168 130.048 639.248l57.12-57.696C114.448 469.44 196.384 320 327.712 320z m548.912 23.2l-57.152 57.312C892.304 512.912 809.728 656 678.88 656H326.176l106.688-105.168-56.432-55.68L173.264 699.2l203.168 203.872 56.432-58.224L325.888 736H678.88c202.064 0 320.512-228.928 197.728-392.8z" fill="#565D64" /></svg>